<svg width="640" height="240" viewBox="0 0 640 240" xmlns="http://www.w3.org/2000/svg" role="img" aria-labelledby="title desc">
  <title>Xôi Bà Su logo</title>
  <desc>Wordmark with a stylized steamed sticky rice bowl icon.</desc>
  <defs>
    <linearGradient id="bg" x1="0%" y1="0%" x2="100%" y2="100%">
      <stop offset="0%" stop-color="#F8B032"/>
      <stop offset="100%" stop-color="#C96A3C"/>
    </linearGradient>
  </defs>
  <rect width="640" height="240" fill="none" />
  <g transform="translate(40 40)">
    <circle cx="80" cy="80" r="70" fill="url(#bg)"/>
    <path d="M40 105c8 22 33 35 70 35s62-13 70-35z" fill="#3A4D39"/>
    <path d="M60 70c10 10 12 22 8 35M90 60c11 14 13 28 6 42M118 66c8 12 9 26 2 36" stroke="#FFF7EB" stroke-width="8" stroke-linecap="round" fill="none"/>
    <path d="M58 118c12 10 30 15 52 15s40-5 52-15" stroke="#FFF7EB" stroke-width="6" stroke-linecap="round" fill="none" opacity="0.65"/>
  </g>
  <text x="210" y="105" font-family="'Playfair Display', 'Times New Roman', serif" font-size="54" fill="#3A4D39" letter-spacing="3">XÔI BÀ SU</text>
  <text x="212" y="148" font-family="'Inter', 'Be Vietnam Pro', sans-serif" font-size="20" fill="#8F8B82" letter-spacing="4">BẾP XÔI NGON • PHÚ THƯỢNG</text>
</svg>

